# xmcd CD database file
#
# Track frame offsets:
#	150
#	45697
#	64961
#	107561
#	138932
#	159647
#	175937
#	198377
#
# Disc length: 2939 seconds
#
# Revision: 8
# Processed by: cddbd v1.5.2PL0 Copyright (c) Steve Scherf et al.
# Submitted via: CDex 1.51
#
DISCID=6d0b7908
DTITLE=Herbie Mann - Push Push
DYEAR=1971
DGENRE=Jazz
TTITLE0=Push Push
TTITLE1=What's Going On
TTITLE2=Spirit In The Dark
TTITLE3=Man's Hope
TTITLE4=If
TTITLE5=Never Can Say Goodbye
TTITLE6=What'd I Say
TTITLE7=Funky Nassau (Bonus Track)
EXTD=LABEL =Atlantic Recording Corporation\nID =532-2\nUPC =7567-90306-2\nCOPYRIGHT =1989 YEAR: 1971
EXTT0=
EXTT1=
EXTT2=
EXTT3=
EXTT4=
EXTT5=
EXTT6=
EXTT7=
PLAYORDER=
